<svg width="94" height="62" viewBox="0 0 94 62" fill="none" xmlns="http://www.w3.org/2000/svg">
<g clip-path="url(#clip0_1393_749)">
<path fill-rule="evenodd" clip-rule="evenodd" d="M0 21.384H15.7621V25.5259H10.4739V38.1821H5.28819V25.5259H0V21.384Z" fill="#2749A1"/>
<path fill-rule="evenodd" clip-rule="evenodd" d="M41.9039 25.5259H33.7794V38.1821H28.5852V21.384H41.9039V25.5259Z" fill="#2749A1"/>
<path fill-rule="evenodd" clip-rule="evenodd" d="M51.4382 21.384H67.2088V25.5259H61.9206V38.1821H56.7264V25.5259H51.4382V21.384Z" fill="#2749A1"/>
<path fill-rule="evenodd" clip-rule="evenodd" d="M78.4343 21.3755H84.0813L86.4136 28.3099L88.7117 21.3755H93.9828L88.464 34.3647C88.1334 35.1746 87.7392 35.9571 87.285 36.7047C86.9131 37.2559 86.4036 37.7004 85.807 37.9942C84.9479 38.3637 84.016 38.5331 83.0818 38.4895C82.0299 38.4561 80.9805 38.3677 79.9379 38.2248V34.8088C80.7922 34.8942 81.45 34.9369 81.8516 34.9369C83.0476 34.9369 83.7738 34.4843 84.0386 33.5961L78.4343 21.3755Z" fill="#2749A1"/>
<path fill-rule="evenodd" clip-rule="evenodd" d="M17.2486 30.9745C17.2469 30.6076 17.3542 30.2485 17.5568 29.9426C17.7595 29.6367 18.0484 29.3979 18.387 29.2563C18.7256 29.1147 19.0986 29.0768 19.4588 29.1474C19.819 29.2179 20.1501 29.3937 20.4102 29.6526C20.6704 29.9114 20.8478 30.2416 20.92 30.6013C20.9922 30.961 20.956 31.334 20.816 31.6732C20.6759 32.0123 20.4383 32.3022 20.1332 32.5062C19.8282 32.7102 19.4694 32.8191 19.1024 32.8191C18.8594 32.8203 18.6185 32.7734 18.3936 32.6812C18.1687 32.589 17.9643 32.4533 17.7921 32.2819C17.6198 32.1105 17.4831 31.9067 17.3898 31.6824C17.2966 31.458 17.2486 31.2175 17.2486 30.9745Z" fill="#2749A1"/>
<path fill-rule="evenodd" clip-rule="evenodd" d="M44.9539 30.9744C44.9522 30.7393 45.0204 30.5089 45.1499 30.3126C45.2793 30.1163 45.4642 29.9628 45.681 29.8716C45.8978 29.7805 46.1369 29.7558 46.3678 29.8006C46.5987 29.8454 46.8111 29.9578 46.978 30.1235C47.1449 30.2891 47.2589 30.5006 47.3054 30.7311C47.3519 30.9616 47.3289 31.2007 47.2393 31.4181C47.1497 31.6355 46.9975 31.8214 46.802 31.9523C46.6065 32.0831 46.3766 32.1529 46.1414 32.1529C45.8279 32.1529 45.5272 32.029 45.3047 31.8083C45.0822 31.5875 44.9561 31.2877 44.9539 30.9744Z" fill="#2749A1"/>
<path fill-rule="evenodd" clip-rule="evenodd" d="M70.3526 30.9745C70.3509 30.6076 70.4582 30.2485 70.6608 29.9426C70.8635 29.6367 71.1524 29.3979 71.491 29.2563C71.8296 29.1147 72.2026 29.0768 72.5628 29.1474C72.923 29.2179 73.2541 29.3937 73.5142 29.6526C73.7744 29.9114 73.9518 30.2416 74.024 30.6013C74.0962 30.961 74.06 31.334 73.92 31.6732C73.7799 32.0123 73.5423 32.3022 73.2372 32.5062C72.9322 32.7102 72.5734 32.8191 72.2064 32.8191C71.9634 32.8203 71.7225 32.7734 71.4976 32.6812C71.2728 32.589 71.0683 32.4533 70.8961 32.2819C70.7238 32.1105 70.5871 31.9067 70.4938 31.6824C70.4006 31.458 70.3526 31.2175 70.3526 30.9745Z" fill="#2749A1"/>
<path d="M20.8026 27.9L20.1362 27.362C33.8736 10.3931 56.0942 0 68.9858 0H69.2079C74.3338 0.0512397 77.8792 1.70799 79.5537 4.76529C82.1849 9.5562 80.1944 17.3105 73.6333 27.8231L72.9071 27.3705C79.2034 17.3019 81.2367 9.62452 78.8104 5.16667C77.3154 2.39972 73.9921 0.905234 69.2079 0.853995H68.9602C56.2907 0.853995 34.3776 11.1276 20.8026 27.9Z" fill="#2749A1"/>
<path d="M20.512 28.0537C20.409 28.0533 20.3093 28.0171 20.2301 27.9513C20.1874 27.9152 20.1523 27.871 20.127 27.8212C20.1017 27.7714 20.0866 27.7171 20.0826 27.6614C20.0786 27.6057 20.0858 27.5497 20.1038 27.4968C20.1218 27.444 20.1502 27.3952 20.1874 27.3535C33.1814 12.2378 54.2573 2.98047 66.4911 2.98047H66.7303C71.9843 3.03171 75.5297 4.4835 77.2469 7.30168C79.7244 11.3582 78.554 18.0535 73.6844 27.7976C73.6334 27.8995 73.544 27.977 73.4359 28.013C73.3277 28.049 73.2097 28.0407 73.1077 27.9897C73.0058 27.9387 72.9283 27.8494 72.8922 27.7413C72.8562 27.6332 72.8645 27.5152 72.9155 27.4133C77.5801 18.1047 78.7932 11.4948 76.5122 7.77138C74.9402 5.15815 71.7707 3.87716 66.7218 3.83446H66.4825C54.4453 3.83446 33.6684 12.9722 20.7939 27.9086C20.721 27.99 20.6206 28.0417 20.512 28.0537Z" fill="#2749A1"/>
<path d="M21.691 62.0001H21.4347C16.3088 61.9403 12.7634 60.2921 11.089 57.2348C8.46623 52.4439 10.4568 44.6896 17.0094 34.177L17.7355 34.6296C11.4478 44.7067 9.40597 52.3756 11.8408 56.8334C13.3614 59.6089 16.6847 61.1034 21.4432 61.1546C34.0785 61.2657 56.2052 50.9836 69.8742 34.1086L70.532 34.6467C56.8032 51.5985 34.574 62.0001 21.691 62.0001Z" fill="#2749A1"/>
<path d="M24.1857 59.0282H23.9294C18.6668 58.9684 15.13 57.5166 13.4128 54.6985C10.9353 50.642 12.0971 43.9467 16.9753 34.2026C17.0265 34.102 17.1154 34.0258 17.2227 33.9906C17.3299 33.9554 17.4468 33.9641 17.5477 34.0147C17.5983 34.0392 17.6435 34.0736 17.6805 34.1159C17.7175 34.1582 17.7456 34.2075 17.7632 34.2609C17.7807 34.3143 17.7873 34.3707 17.7826 34.4267C17.7778 34.4827 17.7619 34.5372 17.7356 34.5869C13.0711 43.8954 11.8579 50.5053 14.139 54.2288C15.7194 56.7907 18.9231 58.0973 23.9379 58.1486C35.8983 58.2852 56.9058 49.0962 69.8658 34.0574C69.9018 34.0147 69.946 33.9797 69.9958 33.9544C70.0457 33.9291 70.1 33.914 70.1558 33.91C70.2115 33.906 70.2675 33.9132 70.3204 33.9312C70.3733 33.9492 70.422 33.9776 70.4638 34.0147C70.5486 34.0903 70.6005 34.1959 70.6084 34.3092C70.6164 34.4225 70.5798 34.5343 70.5065 34.621C57.4953 49.7624 36.4109 59.0282 24.1857 59.0282Z" fill="#2749A1"/>
</g>
<defs>
<clipPath id="clip0_1393_749">
<rect width="94" height="62" fill="#2749A1"/>
</clipPath>
</defs>
</svg>
